<svg xmlns="http://www.w3.org/2000/svg" viewBox="0 0 2095.7 291.14"><defs><style>.cls-1{fill:#fff;}</style></defs><g id="Layer_2" data-name="Layer 2"><g id="Layer_1-2" data-name="Layer 1"><path class="cls-1" d="M265.42,167.2c-.74,8-1.83,16.13-3.24,24.16a214.64,214.64,0,0,1-5.6,23.78,136.29,136.29,0,0,1-8.21,21.15,76.68,76.68,0,0,1-16.83,23.55A95.24,95.24,0,0,1,207.75,276a103.89,103.89,0,0,1-20.53,7.36,156.39,156.39,0,0,1-21.38,3.69c-7.18.7-14.53,1-22,1.07l-21.62,0H0V0H122.23q17.71,0,36.07,1.73a148.51,148.51,0,0,1,35,7.55A113.56,113.56,0,0,1,224,25.7q14,10.58,23.13,27.88Q257,73,261.76,98.08a252.32,252.32,0,0,1,4.73,46.65C266.51,151.64,266.14,159.11,265.42,167.2ZM195,108.94c-2.48-12.51-6.56-23.42-12.35-32.77Q172.31,59.6,156.32,55a123.36,123.36,0,0,0-34.14-4.6h-61l0,187.3h60.94a139.59,139.59,0,0,0,23.12-2.16,73.69,73.69,0,0,0,21.87-7A41.34,41.34,0,0,0,182.71,213a97.06,97.06,0,0,0,9.46-22.27,152.46,152.46,0,0,0,5-24.43,181.45,181.45,0,0,0,1.54-22.06A185.17,185.17,0,0,0,195,108.94Zm178.14,178.9q-11.7,0-23.61-.24a93.92,93.92,0,0,1-23.12-3.21q-19.9-5.17-30.32-22.24a68.75,68.75,0,0,1-10.37-36.51A75.35,75.35,0,0,1,292,195.85a59.18,59.18,0,0,1,18.85-24.22A42.25,42.25,0,0,1,324.32,165a103,103,0,0,1,16.29-3.47q8.46-1,16.66-1.29c5.53-.13,10.56-.21,15.21-.19l71.13,0,0-3.45c0-7.49-1-13.47-3-17.93a23.07,23.07,0,0,0-8.86-10.37,34.72,34.72,0,0,0-14.06-4.77,143.42,143.42,0,0,0-18.13-1.09H301.86l0-44.92,97.67,0c4,0,8,0,11.91.21s7.84.23,11.86.22Q450,78.76,469,89.1c12.6,6.94,21.77,19.44,27.52,37.63a87.07,87.07,0,0,1,4.09,21.14c.42,6.94.64,14.13.62,21.64l0,118.33ZM443.61,205H366.86a25,25,0,0,0-15.42,4.72q-6.27,4.72-6.28,14.6c0,4.59.93,8.1,2.84,10.54a16.1,16.1,0,0,0,7.36,5.35,36.85,36.85,0,0,0,10.18,2.16c3.74.27,7.37.42,10.84.42l67.19,0ZM629,288.14c-14.36,0-27.31-2.51-38.72-7.58s-20-14.77-25.4-29.2a89.33,89.33,0,0,1-4.29-21c-.58-7.07-.88-14.22-.86-21.41V122.45H523l0-45,36.73,0,0-77.44h57.62V77.44h53.58v45l-53.57,0V199c0,4.61.06,10.37.19,17.28s1.67,12.41,4.57,16.45a22.33,22.33,0,0,0,9.92,7.6,48,48,0,0,0,13,3,90,90,0,0,0,13.83.22c4.64-.27,8.64-.42,12.11-.43v45Zm145.5-.3c-7.78,0-15.68,0-23.59-.23a94.15,94.15,0,0,1-23.17-3.24q-19.9-5.14-30.29-22.24a69,69,0,0,1-10.39-36.5,75.44,75.44,0,0,1,6.3-29.78,58.59,58.59,0,0,1,18.87-24.21A41.71,41.71,0,0,1,725.66,165a100.71,100.71,0,0,1,16.28-3.5c5.62-.68,11.19-1.11,16.66-1.27s10.57-.2,15.19-.22L845,160v-3.47c0-7.48-1-13.46-3-17.92a23,23,0,0,0-8.86-10.38,34.37,34.37,0,0,0-14-4.76,143.6,143.6,0,0,0-18.17-1.08H703.2l0-44.92h97.67c4,0,8,.05,11.91.2s7.83.23,11.86.21q26.77.88,45.69,11.23t27.53,37.62a88.27,88.27,0,0,1,4.06,21.17c.49,6.92.68,14.11.65,21.63l0,118.32ZM845,205H768.18a24.92,24.92,0,0,0-15.4,4.72c-4.21,3.17-6.28,8.05-6.28,14.63,0,4.58.93,8.1,2.83,10.52a16.11,16.11,0,0,0,7.37,5.35,36.34,36.34,0,0,0,10.16,2.18c3.78.26,7.41.43,10.89.43H845Z"/><path class="cls-1" d="M1141.38,288.13a81.75,81.75,0,0,1-4.3-20.31q-.87-10.35-2.18-20.72c-1.46-13.23-3.79-24.26-7.14-33s-8-15.78-14-20.92-13.7-8.85-22.94-11-20.46-3.25-33.74-3.25h-49.27l0,109.25H946.53V0h140.88q16,0,32.65,1.08a150.82,150.82,0,0,1,31.74,5.4q25.53,7.35,39.76,27.66t14.28,46.21q0,29.82-12.57,52.07t-42.34,31.73c6.31,2.3,11.72,4.54,16.19,6.68a54.1,54.1,0,0,1,11.89,7.8,48,48,0,0,1,9.13,10.8,110.06,110.06,0,0,1,7.72,15.76,82.88,82.88,0,0,1,6.71,29.36c.45,10.07,1.24,20.18,2.41,30.24a121.17,121.17,0,0,0,5.17,23.33Zm-6.82-219.3a27.34,27.34,0,0,0-9.29-11.29,36,36,0,0,0-14-5.54,92.89,92.89,0,0,0-17.67-1.59h-85.84l0,78.05,85.81,0q21.14,0,32.77-8.62c7.8-5.77,11.65-16.51,11.64-32.14Q1138,76.17,1134.56,68.83Zm306.29,162a93.31,93.31,0,0,1-23.3,33.1,100,100,0,0,1-35.41,20.3q-20.49,6.94-45.07,6.93-52.65,0-81.57-28.74t-28.93-81.56q0-24.63,8.21-44.53a93.79,93.79,0,0,1,22.88-33.54,101.84,101.84,0,0,1,35.19-21,131.73,131.73,0,0,1,44.65-7.34q52.66,0,82.21,29t29.6,82.2Q1449.28,211.11,1440.85,230.8Zm-53.59-73a55.33,55.33,0,0,0-8.56-20,41.45,41.45,0,0,0-16.12-13.42c-6.67-3.27-14.92-4.91-24.66-4.93-10.29,0-18.81,1.7-25.51,5.13a40.66,40.66,0,0,0-15.86,13.85,55.91,55.91,0,0,0-8.17,20.48,126.64,126.64,0,0,0-2.36,25.38,101.34,101.34,0,0,0,2.77,24.52,54.23,54.23,0,0,0,9,19.61,42,42,0,0,0,16.32,13c6.68,3.12,14.95,4.67,24.65,4.68s17.89-1.69,24.47-5.11a43.62,43.62,0,0,0,15.88-13.64,53.42,53.42,0,0,0,8.36-20.26,126.08,126.08,0,0,0,2.37-24.53A112.64,112.64,0,0,0,1387.26,157.83Zm297.87,74.93q-10.79,24.19-35.36,39.78c-11.82,7.52-23.69,12-35.76,13.45a323.15,323.15,0,0,1-38.38,2.12l-94,0V0h57.63V77.45h51.32q49.71,0,77.49,26.17T1695.93,180A128.34,128.34,0,0,1,1685.13,232.76ZM1625,138q-13.27-15.54-42.55-15.57h-43.18V243.12h43.18q28,0,41.9-17.52t14-43.89C1638.28,163,1633.83,148.4,1625,138ZM1928.6,230.8a93,93,0,0,1-23.33,33.06,99,99,0,0,1-35.36,20.34q-20.51,6.94-45.12,6.94-52.66,0-81.55-28.78t-28.9-81.53c0-16.44,2.72-31.28,8.16-44.53a94.07,94.07,0,0,1,22.91-33.52,100.92,100.92,0,0,1,35.14-21,132.11,132.11,0,0,1,44.68-7.37q52.68,0,82.23,29T1937,185.59Q1937,211.12,1928.6,230.8Zm-53.58-73a55.38,55.38,0,0,0-8.6-20.06,41.88,41.88,0,0,0-16.08-13.43c-6.71-3.26-15-4.9-24.68-4.9-10.28,0-18.84,1.72-25.53,5.12a41.13,41.13,0,0,0-15.88,13.86,56.88,56.88,0,0,0-8.16,20.47,128.06,128.06,0,0,0-2.33,25.36,105.06,105.06,0,0,0,2.75,24.53,54.52,54.52,0,0,0,9,19.6,42.21,42.21,0,0,0,16.34,13q10,4.7,24.66,4.69c9.74,0,17.87-1.68,24.44-5.13a43.06,43.06,0,0,0,15.9-13.62,53.49,53.49,0,0,0,8.37-20.25,127.68,127.68,0,0,0,2.33-24.53A111.83,111.83,0,0,0,1875,157.85Zm178.76,130.28c-14.39,0-27.28-2.52-38.77-7.57s-19.93-14.75-25.36-29.2a88.36,88.36,0,0,1-4.31-20.94c-.58-7.09-.86-14.25-.86-21.44l0-86.52h-36.78v-45h36.75V0h57.62V77.45h53.61l0,45-53.58,0V199c0,4.63.06,10.39.2,17.33s1.66,12.38,4.55,16.43a22.35,22.35,0,0,0,10,7.57,47.56,47.56,0,0,0,13,3,83.91,83.91,0,0,0,13.82.23c4.62-.28,8.64-.44,12.09-.43l0,45Z"/></g></g></svg>